<svg id="Artwork" xmlns="http://www.w3.org/2000/svg" viewBox="0 0 259.56 192.62"><defs><style>.cls-1{fill:#898a8d;}.cls-2{fill:#d7282f;}.cls-3{fill:#fff;}</style></defs><path class="cls-1" d="M12.14,98.69H25c4.62,0,5.35,1.52,5.35,4.53v1.31c0,2.25-1.28,2.87-2.94,3v0c2.21.4,2.74,1.55,2.74,3v4.09h-2v-3.52c0-2.5-1.22-2.8-3.19-2.8H14.31v6.32H12.14Zm12.57,7.92c2.41,0,3.42-.65,3.42-2.33v-1.46c0-1.79-.77-2.36-4-2.36H14.31v6.15Z"/><path class="cls-1" d="M44.78,104.5c0-4,1.38-6,5.71-6h9.22c4.34,0,5.71,1.95,5.71,6v4.38c0,4.05-1.37,6-5.71,6H50.49c-4.33,0-5.71-1.95-5.71-6Zm18.47-.81c0-2.79-1.68-3.41-3.76-3.41H50.71c-2.08,0-3.76.62-3.76,3.41v6c0,2.79,1.68,3.41,3.76,3.41h8.78c2.08,0,3.76-.62,3.76-3.41Z"/><path class="cls-1" d="M80.34,98.69H94c3.32,0,4.25,1.72,4.25,3.56v1.37c0,1.15-.64,2.32-2.59,2.52v.09c1.7.09,3.21.73,3.21,3.16v1.91c0,2.23-2,3.4-4.65,3.4H80.34Zm15.75,3.45c0-1.46-1.61-1.68-2.28-1.68H82.51v5.11H93.7c1.18,0,2.39-.38,2.39-2Zm.62,7.49c0-2-1.1-2.29-3.07-2.29H82.51v5.59H94c2,0,2.74-.73,2.74-2.14Z"/><path class="cls-1" d="M113.41,104.5c0-4,1.37-6,5.7-6h9.22c4.34,0,5.71,1.95,5.71,6v4.38c0,4.05-1.37,6-5.71,6h-9.22c-4.33,0-5.7-1.95-5.7-6Zm18.46-.81c0-2.79-1.68-3.41-3.76-3.41h-8.78c-2.08,0-3.76.62-3.76,3.41v6c0,2.79,1.68,3.41,3.76,3.41h8.78c2.08,0,3.76-.62,3.76-3.41Z"/><path class="cls-1" d="M155.31,100.46h-8.09V98.69h18.35v1.77h-8.09V114.7h-2.17Z"/><path class="cls-1" d="M179.24,98.69h2.17v16h-2.17Z"/><path class="cls-1" d="M196.4,104.5c0-4,1.37-6,5.71-6h8.29c3.94,0,5,1.84,5,4v1.37h-1.9v-.73c0-2.72-1.68-2.85-3.67-2.85h-7.52c-2.08,0-3.76.62-3.76,3.41v6c0,2.79,1.68,3.41,3.76,3.41h7.58c2.92,0,3.76-.62,3.76-2.79v-1h2v1.08c0,2.9-.93,4.47-5.42,4.47h-8.18c-4.34,0-5.71-1.95-5.71-6Z"/><path class="cls-1" d="M229.91,109.66h2v1.13c0,1.57.84,2.32,3.54,2.32h6.72c3.14,0,4.07-.67,4.07-3,0-2-.79-2.52-3.49-2.52h-4.12c-6.61,0-8.78-.39-8.78-4.64,0-3.65,2.17-4.47,6.64-4.47h4.66c5.38,0,6.73,1.37,6.73,4.22v.56h-2c0-2.55-.31-3-6-3h-2.3c-4.18,0-5.66.22-5.66,2.85,0,1.91.59,2.55,4,2.55h6.41c4.23,0,6,1.21,6,3.93v1c0,3.94-3.23,4.23-6.44,4.23h-6c-3.16,0-5.94-.56-5.94-4Z"/><path class="cls-2" d="M11.42,132.91c0-4.92,2.76-6.08,7.4-6.08h6.05c7.32,0,8.27,1.58,8.23,6.33H28v-.46c0-1.21-.88-1.55-2.41-1.55H19.93c-2.71,0-3.22,1.27-3.22,3.36v1.81c0,2.43.51,3.36,2.94,3.36h5.49c2.32,0,3-.23,3-2.32H33.3v1.58c0,2.82-1,5.05-6.19,5.05H18.82c-4.64,0-7.4-1.16-7.4-6.07Z"/><path class="cls-2" d="M36.23,132.91c0-4.92,2.76-6.08,7.4-6.08h8.25c4.64,0,7.4,1.16,7.4,6.08v5c0,4.91-2.76,6.07-7.4,6.07H43.63c-4.64,0-7.4-1.16-7.4-6.07Zm5.29,3.41c0,2.43.51,3.36,2.94,3.36h6.59c2.43,0,2.94-.93,2.94-3.36v-1.81c0-2.09-.51-3.36-3.22-3.36h-6c-2.71,0-3.22,1.27-3.22,3.36Z"/><path class="cls-2" d="M62.58,127h7.9l5.82,10.8L82.12,127H90V143.8H85V131.75h0L78.23,143.8H74.38l-6.75-12.05h0V143.8h-5Z"/><path class="cls-2" d="M93.7,127h14c4.89,0,6.07,2.46,6.07,5.75v1.44c0,2.5-1.09,5.38-4.73,5.38H98.85v4.21H93.7Zm5.15,8.39h8a1.57,1.57,0,0,0,1.67-1.78V133c0-1.14-.56-1.79-2.11-1.79H98.85Z"/><path class="cls-2" d="M116.78,127h18.36v3.89H121.92v2.69h12.52v3.48H121.92v2.69h13.52v4H116.78Z"/><path class="cls-2" d="M137.51,127h19.61v4.17h-7.23V143.8h-5.15V131.19h-7.23Z"/><path class="cls-2" d="M159.84,127H165V143.8h-5.15Z"/><path class="cls-2" d="M167.7,127h19.62v4.17h-7.24V143.8h-5.14V131.19H167.7Z"/><path class="cls-2" d="M190,127h5.14V143.8H190Z"/><path class="cls-2" d="M198.76,132.91c0-4.92,2.76-6.08,7.39-6.08h8.26c4.63,0,7.39,1.16,7.39,6.08v5c0,4.91-2.76,6.07-7.39,6.07h-8.26c-4.63,0-7.39-1.16-7.39-6.07Zm5.28,3.41c0,2.43.51,3.36,3,3.36h6.58c2.44,0,2.94-.93,2.94-3.36v-1.81c0-2.09-.5-3.36-3.22-3.36h-6c-2.72,0-3.23,1.27-3.23,3.36Z"/><path class="cls-2" d="M225.1,127h8l9.66,12.19h0V127h5.15V143.8h-8l-9.67-12.19h0V143.8H225.1Z"/><path class="cls-1" d="M226.28,42.14a.87.87,0,0,0-.49.16L205.22,56.6,184.55,42.3a.9.9,0,0,0-.5-.16H165.89a.87.87,0,0,0-.83.61.78.78,0,0,0,0,.26.87.87,0,0,0,.38.72l29.43,19.92C192.83,65,162.9,85,162.9,85a.87.87,0,0,0-.39.72,1.09,1.09,0,0,0,0,.26.87.87,0,0,0,.83.61h18.56a.89.89,0,0,0,.5-.15l22.78-15.77,22.57,15.77a.89.89,0,0,0,.5.15h18.26a.87.87,0,0,0,.83-.61.75.75,0,0,0,0-.26.86.86,0,0,0-.38-.71L215.3,63.65l29.53-19.92a.85.85,0,0,0,.38-.72,1,1,0,0,0,0-.25.88.88,0,0,0-.83-.62Z"/><path class="cls-1" d="M83.51,42.14a.9.9,0,0,0-.68.32L55.63,75.74,28.91,42.47a.86.86,0,0,0-.68-.33H13a.87.87,0,0,0-.67,1.42L47.52,86.32a.89.89,0,0,0,.68.31H63a.87.87,0,0,0,.67-.31L99.43,43.57a.87.87,0,0,0-.67-1.43Z"/><path class="cls-2" d="M107.61,42.13a25.62,25.62,0,0,1-2.81-12.07c0-9.74,4.88-17.92,10.82-17.92H153.2c2,0,3.65,2.73,3.65,6s-1.65,6-3.65,6H115.62c-2,0-3.53,2.72-3.53,5.84s1.42,6.13,3.53,6.13H153.2c2,0,3.65,2.69,3.65,6h0c0,3.26-1.65,6-3.65,6H115.62c-2.11,0-3.53,3-3.53,6.13s1.53,5.84,3.53,5.84H153.2c2,0,3.65,2.73,3.65,6s-1.65,6-3.65,6H115.62c-5.94,0-10.82-8.18-10.82-17.92a25.62,25.62,0,0,1,2.81-12.07Z"/><path class="cls-1" d="M244.49,74.36a3,3,0,0,1,1.44.38,2.66,2.66,0,0,1,1.1,1.08,3,3,0,0,1,.39,1.47,3,3,0,0,1-.39,1.46A2.56,2.56,0,0,1,246,79.83a2.93,2.93,0,0,1-1.46.39,3,3,0,0,1-1.46-.39A2.67,2.67,0,0,1,242,78.75a3,3,0,0,1-.39-1.46,2.9,2.9,0,0,1,.4-1.47,2.64,2.64,0,0,1,1.09-1.08A3,3,0,0,1,244.49,74.36Zm0,.49a2.5,2.5,0,0,0-1.2.31,2.28,2.28,0,0,0-.91.91,2.46,2.46,0,0,0-.33,1.22,2.42,2.42,0,0,0,.32,1.22,2.38,2.38,0,0,0,.91.9,2.4,2.4,0,0,0,2.43,0,2.29,2.29,0,0,0,.9-.9,2.43,2.43,0,0,0,.33-1.22,2.57,2.57,0,0,0-.33-1.22,2.3,2.3,0,0,0-.92-.91A2.5,2.5,0,0,0,244.49,74.85Zm-1.28,4.06V75.76h1.08a2.64,2.64,0,0,1,.81.09.83.83,0,0,1,.39.3.81.81,0,0,1,.15.46.84.84,0,0,1-.25.61,1,1,0,0,1-.65.28,1.14,1.14,0,0,1,.27.17,3.42,3.42,0,0,1,.46.63l.39.61h-.63l-.27-.49a2.51,2.51,0,0,0-.54-.74.64.64,0,0,0-.4-.11h-.3v1.34Zm.51-1.77h.61a1.08,1.08,0,0,0,.61-.13.43.43,0,0,0,.16-.35.41.41,0,0,0-.08-.25.44.44,0,0,0-.21-.17,1.58,1.58,0,0,0-.51,0h-.58Z"/><path class="cls-1" d="M233,151.09H26.31a14.41,14.41,0,0,0-14.4,14.41h0a14.4,14.4,0,0,0,14.4,14.4H233a14.4,14.4,0,0,0,14.39-14.4h0A14.4,14.4,0,0,0,233,151.09Z"/><path class="cls-3" d="M40.53,169.06c.06,1.33.2,1.65.9,1.91a17.1,17.1,0,0,0,3.94.29c6.82,0,7.63-.2,7.63-1.8a1.53,1.53,0,0,0-1-1.56c-.63-.2-.63-.2-3.68-.23H43c-3.56,0-5-.21-6.29-.84s-2-2.27-2-4.91c0-3.48,1-5,3.77-5.62,1.57-.41,3.83-.56,8.06-.56,6.79,0,8.36.18,9.75,1.08s1.77,2.09,1.77,5H52.28c0-1.69-.58-1.92-4.38-1.92-1.89,0-4.41.06-5.34.12-1.57.11-2.09.52-2.09,1.62a1.45,1.45,0,0,0,1.25,1.54,9.11,9.11,0,0,0,2.38.15h5.48c.52,0,3.13.08,4.12.14,3.68.17,5.13,1.8,5.13,5.69,0,3.56-1,5.13-3.89,5.74a48,48,0,0,1-8.52.49c-6.7,0-8.18-.14-9.9-1-1.19-.58-1.79-2.06-1.79-4.35,0-.18,0-.56,0-1Z"/><path class="cls-3" d="M68.49,155.89h14.8c3.74,0,4.7.12,5.91.72,2,1,2.67,2.73,2.67,6.39s-.66,5.59-2.26,6.58c-1.13.7-2.44.9-5.8.9H74.35v4.76H68.49Zm14.42,9.89c2.41,0,3.1-.52,3.1-2.35,0-2.32-.58-2.84-3.1-2.84H74.35v5.19Z"/><path class="cls-3" d="M101.34,155.89h5.89v19.35h-5.89Z"/><path class="cls-3" d="M117.45,155.89h9.37l11.72,14.71-.14-14.71H144v19.35h-9.46L123,160.68l.14,14.56h-5.66Z"/><path class="cls-3" d="M173.05,155.89v9.57a15.38,15.38,0,0,0,.08,2.7c.29,2.18,1.25,2.61,5.66,2.61s5.63-.12,6.35-.67.87-1.27.9-2.75c0-.44,0-.44,0-2.58v-8.88H192V166c.06,4.79-.35,6.21-2.06,7.75a9,9,0,0,1-5.66,1.56c-.89,0-1.42,0-2.58,0l-2.2,0c-5.46,0-6.53-.09-8-.46-3.51-1.08-4.44-2.9-4.35-8.65V155.89Z"/><path class="cls-3" d="M202.07,155.89h14.79c3.74,0,4.7.12,5.92.72,1.94,1,2.67,2.73,2.67,6.39s-.67,5.59-2.26,6.58c-1.13.7-2.44.9-5.81.9h-9.45v4.76h-5.86Zm14.42,9.89c2.4,0,3.1-.52,3.1-2.35,0-2.32-.58-2.84-3.1-2.84h-8.56v5.19Z"/></svg>